<?xml version="1.0" standalone="no"?>
<!DOCTYPE svg PUBLIC "-//W3C//DTD SVG 20010904//EN"
 "http://www.w3.org/TR/2001/REC-SVG-20010904/DTD/svg10.dtd">
<svg version="1.0" xmlns="http://www.w3.org/2000/svg"
 width="450.000000pt" height="338.000000pt" viewBox="0 0 450.000000 338.000000"
 preserveAspectRatio="xMidYMid meet">
<metadata>
Created by potrace 1.10, written by Peter Selinger 2001-2011
</metadata>
<g transform="translate(0.000000,338.000000) scale(0.100000,-0.100000)"
fill="#141514" stroke="none">
<path d="M1954 2755 c-16 -24 -16 -27 1 -45 31 -34 75 -19 75 25 0 48 -49 60
-76 20z m61 -20 c0 -22 -31 -33 -47 -17 -17 17 -1 44 24 40 15 -2 23 -10 23
-23z"/>
<path d="M2581 2687 c0 -10 -5 -16 -10 -12 -5 3 -12 1 -16 -5 -3 -5 0 -10 9
-10 8 0 17 -6 19 -12 4 -10 6 -10 6 0 1 6 8 12 17 12 8 0 12 5 9 10 -4 6 -10
8 -15 5 -5 -3 -11 3 -13 12 -4 17 -5 17 -6 0z"/>
<path d="M2035 2340 l-210 -210 -121 0 c-113 0 -122 -1 -142 -23 -19 -20 -22
-35 -22 -104 0 -76 2 -83 26 -102 18 -14 41 -21 70 -21 41 0 43 -2 49 -32 3
-18 23 -150 45 -293 42 -273 52 -310 81 -325 10 -6 189 -10 441 -10 408 0 425
1 445 20 28 26 26 17 73 320 22 146 43 277 46 293 5 25 9 27 54 27 77 0 89 17
91 124 2 123 -2 126 -165 126 l-121 0 -210 210 c-115 116 -212 210 -215 210
-3 0 -100 -94 -215 -210z m415 -24 c104 -105 190 -190 190 -190 0 -1 -175 0
-388 2 l-389 2 191 190 c105 104 194 189 198 187 4 -1 93 -87 198 -191z m-686
-245 c-18 -17 -41 -28 -58 -28 -31 0 -47 -18 -44 -47 7 -45 68 -45 76 0 2 10
22 38 45 62 l41 42 421 0 420 -1 48 -44 c27 -25 47 -52 47 -64 0 -25 43 -39
65 -21 32 27 11 74 -33 72 -20 0 -38 8 -58 29 l-28 29 107 0 c98 0 107 -2 118
-21 16 -30 7 -148 -12 -160 -23 -14 -1322 -12 -1337 3 -7 7 -12 41 -12 83 0
42 5 76 12 83 8 8 48 12 113 12 l100 0 -31 -29z m-49 -71 c-17 -19 -35 -19
-35 1 0 10 42 30 49 23 2 -2 -4 -13 -14 -24z m1098 -1 c14 -10 -7 -19 -22 -9
-9 5 -11 15 -6 26 6 16 8 16 13 4 3 -8 9 -18 15 -21z m-23 -130 c0 -6 -11 -79
-25 -162 -13 -84 -33 -212 -45 -285 -11 -74 -25 -142 -30 -153 -10 -18 -30
-19 -426 -21 -228 -2 -423 0 -433 4 -10 3 -21 15 -25 25 -6 14 -96 577 -96
597 0 3 243 6 540 6 378 0 540 -3 540 -11z"/>
<path d="M1621 1994 c0 -11 3 -14 6 -6 3 7 2 16 -1 19 -3 4 -6 -2 -5 -13z"/>
<path d="M1620 1946 c0 -9 5 -16 10 -16 6 0 10 4 10 9 0 6 -4 13 -10 16 -5 3
-10 -1 -10 -9z"/>
<path d="M2435 1709 c-4 -6 -5 -12 -2 -15 2 -3 7 2 10 11 7 17 1 20 -8 4z"/>
<path d="M1983 1679 c-58 -22 -22 -113 37 -94 21 7 36 45 27 69 -9 22 -40 35
-64 25z m44 -45 c5 -14 -35 -26 -43 -13 -3 5 1 9 8 9 9 0 9 3 -2 11 -12 8 -10
9 9 7 14 -2 26 -8 28 -14z"/>
<path d="M2471 1674 c-36 -26 -18 -94 25 -94 18 0 54 36 54 53 0 38 -48 62
-79 41z m49 -46 c0 -15 -32 -21 -40 -7 -13 20 9 43 26 28 8 -6 14 -16 14 -21z"/>
<path d="M2172 1435 c-18 -8 -31 -19 -28 -24 4 -5 20 -3 38 6 41 21 105 21
146 -1 25 -13 32 -14 32 -3 0 33 -127 48 -188 22z"/>
<path d="M1830 1415 c0 -5 5 -17 10 -25 5 -8 10 -10 10 -5 0 6 -5 17 -10 25
-5 8 -10 11 -10 5z"/>
<path d="M1794 2426 c-9 -9 -8 -17 2 -30 12 -17 14 -17 29 -2 15 14 15 18 1
31 -17 18 -18 18 -32 1z m26 -16 c0 -5 -4 -10 -10 -10 -5 0 -10 5 -10 10 0 6
5 10 10 10 6 0 10 -4 10 -10z"/>
<path d="M2740 2406 c-28 -35 11 -93 48 -70 35 22 22 84 -18 84 -10 0 -23 -7
-30 -14z m57 -22 c4 -11 -1 -22 -12 -31 -16 -11 -21 -11 -33 1 -8 8 -12 22 -9
30 8 21 46 21 54 0z"/>
<path d="M1378 2225 c-14 -32 5 -57 41 -53 18 2 27 10 29 26 7 50 -49 72 -70
27z m50 -31 c-19 -19 -38 -11 -38 16 0 24 21 31 40 14 12 -12 12 -16 -2 -30z"/>
<path d="M3010 2150 c0 -11 5 -20 10 -20 6 0 10 9 10 20 0 11 -4 20 -10 20 -5
0 -10 -9 -10 -20z"/>
<path d="M2975 2129 c-4 -6 2 -13 14 -16 12 -3 21 -12 21 -19 0 -8 5 -14 10
-14 6 0 10 6 10 14 0 7 9 16 21 19 12 3 18 10 14 16 -4 8 -12 8 -26 1 -13 -7
-25 -7 -38 0 -14 7 -22 7 -26 -1z"/>
<path d="M2048 963 c7 -3 16 -2 19 1 4 3 -2 6 -13 5 -11 0 -14 -3 -6 -6z"/>
<path d="M2383 963 c9 -2 25 -2 35 0 9 3 1 5 -18 5 -19 0 -27 -2 -17 -5z"/>
<path d="M1943 953 c9 -2 23 -2 30 0 6 3 -1 5 -18 5 -16 0 -22 -2 -12 -5z"/>
<path d="M2558 953 c7 -3 16 -2 19 1 4 3 -2 6 -13 5 -11 0 -14 -3 -6 -6z"/>
<path d="M1830 940 c0 -5 7 -7 15 -4 8 4 15 8 15 10 0 2 -7 4 -15 4 -8 0 -15
-4 -15 -10z"/>
<path d="M2628 943 c7 -3 16 -2 19 1 4 3 -2 6 -13 5 -11 0 -14 -3 -6 -6z"/>
<path d="M2670 940 c8 -5 22 -9 30 -9 10 0 8 3 -5 9 -27 12 -43 12 -25 0z"/>
<path d="M2728 921 c11 -6 10 -10 -4 -15 -9 -3 -14 -9 -11 -13 9 -8 38 17 31
28 -3 5 -11 9 -17 9 -8 0 -8 -3 1 -9z"/>
<path d="M2618 873 c6 -2 18 -2 25 0 6 3 1 5 -13 5 -14 0 -19 -2 -12 -5z"/>
<path d="M1958 863 c7 -3 16 -2 19 1 4 3 -2 6 -13 5 -11 0 -14 -3 -6 -6z"/>
<path d="M2568 863 c7 -3 16 -2 19 1 4 3 -2 6 -13 5 -11 0 -14 -3 -6 -6z"/>
<path d="M2100 856 c0 -2 13 -6 29 -8 17 -2 28 -1 25 4 -5 8 -54 12 -54 4z"/>
<path d="M2197 843 c18 -2 50 -2 70 0 21 2 7 4 -32 4 -38 0 -55 -2 -38 -4z"/>
<path d="M2323 843 c9 -2 23 -2 30 0 6 3 -1 5 -18 5 -16 0 -22 -2 -12 -5z"/>
</g>
</svg>
