<svg version="1.1" id="Layer_1" xmlns="http://www.w3.org/2000/svg" xmlns:xlink="http://www.w3.org/1999/xlink" x="0px" y="0px"
	 width="100%" viewBox="0 0 560 416" enable-background="new 0 0 560 416" xml:space="preserve">
<path fill="#000000" opacity="1.000000" stroke="none" 
	d="
M341.010712,267.850952 
	C337.794067,271.646912 333.866913,272.351379 329.510162,272.342468 
	C298.535797,272.279022 267.561249,272.316925 236.586761,272.299744 
	C227.292191,272.294586 223.328979,268.866913 221.880219,259.571655 
	C218.835037,240.033798 215.830109,220.489670 212.807983,200.948212 
	C212.604736,199.634064 212.421570,198.316116 212.185150,197.007874 
	C210.852722,189.635391 210.848129,189.636215 203.119141,189.177246 
	C197.391586,188.837128 193.879623,185.371201 193.710632,179.654541 
	C193.582764,175.328506 193.625031,170.994934 193.691635,166.666245 
	C193.787277,160.449280 196.935638,157.080063 203.195801,156.879410 
	C209.517578,156.676788 215.867401,156.531830 222.173004,156.903458 
	C227.105743,157.194168 230.631210,155.457108 234.042297,152.024979 
	C248.361679,137.617294 262.899780,123.427216 277.330688,109.130058 
	C282.952698,103.560165 282.906281,103.541168 288.674591,109.257553 
	C303.577209,124.026001 318.529907,138.744247 333.365295,153.579865 
	C335.655609,155.870209 338.027008,156.957520 341.286957,156.878494 
	C348.443298,156.704987 355.608521,156.744827 362.767242,156.866699 
	C369.809601,156.986618 373.052917,160.312943 373.223541,167.398773 
	C373.311707,171.060379 373.297241,174.726501 373.239014,178.389160 
	C373.124054,185.620758 369.665100,189.071198 362.475281,189.219971 
	C355.148468,189.371567 355.048889,189.355804 353.901123,196.601868 
	C350.651245,217.118408 347.501251,237.650742 344.283997,258.172485 
	C343.770599,261.447174 343.364014,264.780670 341.010712,267.850952 
M344.571747,226.187241 
	C346.158752,216.005402 347.695282,205.815338 349.352631,195.644943 
	C350.285095,189.922562 349.858368,189.254181 344.031464,189.250076 
	C303.221588,189.221405 262.411499,189.276550 221.602142,189.128860 
	C217.005600,189.112228 215.826157,190.609497 216.533752,195.001556 
	C219.918655,216.011276 223.128647,237.049377 226.351547,258.084930 
	C227.530670,265.780853 229.627823,267.671143 237.505890,267.674103 
	C267.821808,267.685516 298.137695,267.685699 328.453613,267.681366 
	C336.324646,267.680237 338.612274,265.450317 339.711884,257.585510 
	C341.137482,247.389557 342.830902,237.231033 344.571747,226.187241 
M250.520584,156.773697 
	C276.324066,156.773697 302.127563,156.773697 327.176025,156.773697 
	C312.336121,141.247421 297.680756,125.914223 283.929626,111.527077 
	C268.577515,126.799606 253.616974,141.682602 238.798233,156.424530 
	C238.645126,156.368576 239.092789,156.667297 239.546249,156.676361 
	C242.874008,156.742920 246.202942,156.751495 250.520584,156.773697 
z"/>
<path fill="#000000" opacity="1.000000" stroke="none" 
	d="
M249.984024,87.201004 
	C245.999588,86.497787 244.513733,84.169998 244.892563,80.725723 
	C245.179428,78.117432 246.904984,76.483978 249.480103,76.175735 
	C252.269974,75.841805 254.516388,77.168549 255.340302,79.802162 
	C256.675751,84.070740 254.468918,86.356567 249.984024,87.201004 
M251.644974,84.396057 
	C253.494049,83.177612 253.997864,81.651199 252.530106,79.837967 
	C251.776703,78.907234 250.742798,78.271431 249.481857,78.781837 
	C248.169250,79.313171 247.223633,80.317268 247.283707,81.785065 
	C247.378510,84.100990 248.817764,84.899193 251.644974,84.396057 
z"/>
<path fill="#000000" opacity="1.000000" stroke="none" 
	d="
M173.426880,145.567261 
	C176.247818,141.958939 179.284622,141.681061 182.033295,144.740234 
	C184.481430,147.464951 183.037354,150.026871 180.554108,151.950592 
	C179.163071,153.028214 177.474426,153.153351 175.877014,152.180099 
	C173.504044,150.734314 172.303406,148.773239 173.426880,145.567261 
M179.925690,145.790604 
	C177.854416,144.181793 176.206680,144.625259 175.369308,147.031967 
	C174.821503,148.606476 175.495972,150.247635 177.234024,150.382965 
	C179.980042,150.596756 181.052460,149.016068 179.925690,145.790604 
z"/>
<path fill="#000000" opacity="1.000000" stroke="none" 
	d="
M248.214264,213.935425 
	C253.713058,212.088440 257.617767,213.832489 258.718018,218.275620 
	C259.557404,221.665344 257.184601,225.326263 253.545807,226.098206 
	C250.459503,226.752930 247.854355,225.799088 246.312546,223.026169 
	C244.494232,219.755966 244.827576,216.654724 248.214264,213.935425 
z"/>
<path fill="#000000" opacity="1.000000" stroke="none" 
	d="
M307.818390,216.923676 
	C311.713165,212.289093 315.117676,211.636627 318.455658,214.557938 
	C321.327057,217.070892 321.650848,220.892395 319.180084,223.821884 
	C317.138763,226.242218 314.418640,227.064209 311.611420,225.797775 
	C308.050812,224.191467 306.517700,221.259155 307.818390,216.923676 
z"/>
<path fill="#000000" opacity="1.000000" stroke="none" 
	d="
M278.609985,242.029297 
	C285.590027,241.422073 292.023041,241.313995 296.673798,247.289383 
	C292.072784,247.818283 288.218628,244.789642 283.592438,244.896729 
	C278.962341,245.003891 274.917328,247.292923 269.406555,248.609802 
	C271.484619,243.400833 275.165894,243.255127 278.609985,242.029297 
z"/>
</svg>